<?xml version="1.0" encoding="UTF-8"?><svg id="Calque_1" xmlns="http://www.w3.org/2000/svg" xmlns:xlink="http://www.w3.org/1999/xlink" viewBox="0 0 77 77"><defs><style>.cls-1{fill:url(#Dégradé_sans_nom_150);}.cls-2{fill:#f96e2b;}</style><linearGradient id="Dégradé_sans_nom_150" x1="52.31" y1="71.65" x2="31.55" y2="21.55" gradientTransform="translate(.07 .48) rotate(-.1)" gradientUnits="userSpaceOnUse"><stop offset="0" stop-color="#0a38a3"/><stop offset="1" stop-color="#5e85ed"/></linearGradient></defs><path class="cls-1" d="M58.09,60.1c-.96-.75-1.55-1.8-1.77-2.91-4.98,4.75-11.85,7.54-19.38,7.09-12.71-.75-23.15-10.94-24.17-23.63-1.28-15.89,11.84-29.09,27.73-27.9,12.53.94,22.7,11.05,23.74,23.57.45,5.48-.82,10.64-3.32,15,1.13-.05,2.28.27,3.25,1.02l7.43,5.82c3.6-6.05,5.6-13.16,5.39-20.76C76.41,16.65,59.01-.14,38.24,0,16.96.14-.22,17.55,0,38.9c.21,21,18.3,38.14,39.31,38.1l32.17-.06c2.66,0,3.81-3.36,1.72-5l-15.11-11.84Z"/><path class="cls-2" d="M37.92,45.5c-.77,0-1.54-.29-2.12-.88l-6.98-6.95,4.23-4.25,4.85,4.84,7.37-7.39,4.25,4.23-9.48,9.52c-.58.59-1.35.88-2.12.88Z"/></svg>