<?xml version="1.0" encoding="UTF-8"?><svg id="Calque_2" xmlns="http://www.w3.org/2000/svg" viewBox="0 0 342.38 353.4"><defs><style>.cls-1{fill:#999;}.cls-1,.cls-2,.cls-3,.cls-4,.cls-5,.cls-6,.cls-7,.cls-8,.cls-9,.cls-10,.cls-11,.cls-12,.cls-13,.cls-14,.cls-15,.cls-16,.cls-17{stroke-width:0px;}.cls-2{fill:#f96e2b;}.cls-3{fill:#e5ebf9;}.cls-4{fill:#dcdcdc;}.cls-5{fill:#070454;}.cls-6{fill:#fff;}.cls-7{fill:#96b0f3;}.cls-18{fill:none;stroke:#fff;stroke-miterlimit:10;stroke-width:.5px;}.cls-8{fill:#cedaf4;}.cls-9{fill:#95aef3;}.cls-10{fill:#5e85ed;}.cls-11{fill:#3d3d3d;}.cls-12{fill:#322f71;}.cls-13{fill:#b0c3f6;}.cls-14{fill:#e2e9fc;}.cls-15{fill:#aabef5;}.cls-16{fill:#525252;}.cls-17{fill:#adadad;}</style></defs><g id="Calque_1-2"><rect class="cls-8" y="24.57" width="159.68" height="81.46" rx="4.24" ry="4.24"/><rect class="cls-15" x="26.73" y="36.52" width="24.14" height="8.87" rx="2.19" ry="2.19"/><rect class="cls-3" x="56.65" y="36.52" width="30.85" height="8.87" rx="2.19" ry="2.19"/><rect class="cls-10" x="93.27" y="36.52" width="9.65" height="8.87" rx="2.19" ry="2.19"/><rect class="cls-17" x="108.7" y="36.52" width="26.73" height="8.87" rx="2.19" ry="2.19"/><rect class="cls-10" x="26.73" y="83.56" width="24.14" height="8.87" rx="2.19" ry="2.19"/><rect class="cls-17" x="56.65" y="83.56" width="30.85" height="8.87" rx="2.19" ry="2.19"/><rect class="cls-7" x="93.27" y="83.56" width="9.65" height="8.87" rx="2.19" ry="2.19"/><rect class="cls-10" x="108.7" y="83.56" width="26.73" height="8.87" rx="2.19" ry="2.19"/><rect class="cls-15" x="45.1" y="52" width="10.03" height="8.87" rx="2.19" ry="2.19"/><rect class="cls-3" x="59.93" y="52" width="35.67" height="8.87" rx="2.19" ry="2.19"/><rect class="cls-10" x="100.4" y="52" width="14.79" height="8.87" rx="2.19" ry="2.19"/><rect class="cls-7" x="119.99" y="52" width="15.45" height="8.87" rx="2.19" ry="2.19"/><rect class="cls-3" x="32.1" y="67.47" width="11.47" height="8.87" rx="2.19" ry="2.19"/><rect class="cls-10" x="49.06" y="67.47" width="40.8" height="8.87" rx="2.19" ry="2.19"/><rect class="cls-7" x="95.36" y="67.47" width="16.92" height="8.87" rx="2.19" ry="2.19"/><rect class="cls-17" x="117.77" y="67.47" width="17.67" height="8.87" rx="2.19" ry="2.19"/><rect class="cls-8" x="210.71" width="131.67" height="138.68"/><rect class="cls-6" x="221.84" y="12.73" width="108.93" height="9.51" rx="3.06" ry="3.06"/><rect class="cls-6" x="221.84" y="29.14" width="108.93" height="9.51" rx="3.06" ry="3.06"/><rect class="cls-9" x="221.84" y="45.54" width="31.98" height="27.02" rx="2.15" ry="2.15"/><rect class="cls-13" x="260.31" y="45.54" width="31.98" height="27.02" rx="2.15" ry="2.15"/><rect class="cls-14" x="298.79" y="45.54" width="31.98" height="27.02" rx="2.15" ry="2.15"/><rect class="cls-9" x="221.84" y="77.7" width="31.98" height="27.02" rx="2.15" ry="2.15"/><rect class="cls-9" x="260.31" y="77.7" width="31.98" height="27.02" rx="2.15" ry="2.15"/><rect class="cls-13" x="298.79" y="77.7" width="31.98" height="27.02" rx="2.15" ry="2.15"/><circle class="cls-2" cx="238.18" cy="33.81" r="7.08"/><circle class="cls-2" cx="285.21" cy="17.49" r="7.08"/><path class="cls-10" d="m218.22,107.92s-16.17-6.97-31.5-3.21c-15.33,3.76-27.04,27.74-27.04,27.74l68.3,53.52,15.61-1.67s43.77,25.65,52.13-8.92c0,0,10.4-7.6,5.68-20.87-4.72-13.27-19.34-17.77-24.85-35.76-5.51-17.99-15.9-48-58.32-10.83Z"/><path class="cls-6" d="m196.66,120.28s5.83-17.35,12.49-19.99c6.66-2.64,10.97-2.5,15.69-4.72s9.72-1.67,9.44,6.25-5.14,16.38-5.14,16.38c0,0-5.41-6.66-14.72-6.66,0,0-11.25,2.22-17.77,8.75Z"/><path class="cls-4" d="m214.43,111.53s-2.36-3.35-5.28-4.17v-8.6s-5,1.21-9.72-4.32c-4.72-5.53.14-9.84-2.78-19.56-2.92-9.72,7.08-17.08,7.08-17.08l18.09,8.75s7.87,1.11,3.15,14.3c0,0,1.12,4.84-1.44,6.04s-3.67-.72-3.67-.72c0,0,.38,10.2,6.61,15.03,0,0-8.97,5.86-12.06,10.33Z"/><path class="cls-10" d="m216.81,73.75l-6.1-7.42s.42,5.32-6.05,6.24c0,0-.19-2.85-2.22-3.72,0,0,3.48,5.41,0,10.63-3.48,5.22-12.56,7.63-18.45.87-5.89-6.76.48-15.27,4.25-15.85,0,0-5.31-6.18,1.06-11.5,6.38-5.31,20.68-6.67,25.51-2.71,0,0,1.35-2.03,4.83-1.26s4.64,6.23,2.9,10.02c0,0,2.96,2.61-.69,7.5,0,0-3.79.03-5.03,7.19Z"/><path class="cls-4" d="m220.25,144.4s-5.53-9.77-19.05-10.91c0,0-5.53-4.4-10.09-2.77,0,0-6.19-3.58-13.35.81-7.16,4.4-.98,29.95-.98,29.95l35.65,3.09s6.91-1.47,9.4-7.81-1.58-12.37-1.58-12.37Z"/><path class="cls-18" d="m201.21,133.5c-4.72.33-11.59,1.17-9.6,21.65.31,3.23,10.12,1.57,9.96-10.83,0,0,2.65,1.75,5.23,2.32"/><path class="cls-18" d="m191.11,130.73c-3.7,2.16-7.72,4.73-8.36,15.51"/><path class="cls-1" d="m192.1,157.86l-24.01-62.85c-.83-2.17-3.09-3.45-5.38-3.04l-6.88,1.23,36.27,64.67Z"/><path class="cls-17" d="m192.1,157.86l-27.82-63.71c-.6-1.37-2-2.21-3.49-2.08l-77.39,6.53c-2.28.19-3.71,2.56-2.81,4.67l22.76,53.31,88.75,1.28Z"/><path class="cls-5" d="m235.34,179.27s-18.89-20.92-52.59-30.85c-33.7-9.94-124.69-8.37-124.69-8.37l-1.39,37.3,11.33,16.1s-4.03,64.27,24.97,77.08c29,12.81,53.04-10.79,53.04-10.79,0,0,9.32-14.35-3.57-17.34,0,0,.19-12.7-7.29-21.48h72.62c9.83,0,19.27-4.29,25.38-11.98,4.38-5.51,8.45-13.41,10.44-24.64l-8.25-5.03Z"/><path class="cls-12" d="m233.15,208.95c4.38-5.51,8.45-13.41,10.44-24.64l-8.25-5.03s-18.89-20.92-52.59-30.85c-33.7-9.94-124.69-8.37-124.69-8.37l-1.39,37.3,11.33,16.1c9.59,6.29,12.83,7.91,17.51,5.57,0,0,10.44,20.89,60.86-4.68,0,0,.36,5.22,7.56,1.62,0,0,20.07,15.66,38.83,24.96h15.01c9.83,0,19.27-4.29,25.38-11.98Z"/><path class="cls-16" d="m70.92,139.32s.93-2.16-5.86-1.65c0,0-18.91-20.35-38.85-20.97s-27.03,28.86-12.52,47.89c5.57,7.3,27.05,17.5,27.05,17.5,0,0,13.92,14.09,27.13,14.54l.13-3.18s-8.71-13.88-10.95-26.22c0,0,3.94,3.11,6.42.95,2.47-2.16.31-13.76,5.41-20.25,5.1-6.49,7.34-9.27,2.05-8.61Z"/><path class="cls-11" d="m67.99,193.46s-.66-1.06-1.66-2.82c-11.12-1.75-22.82-12.25-22.82-12.25,0,0-24.27-5.41-32-26.9-7.2-20.01,1.65-29.54,2.9-30.76-10.28,8.62-11.84,29.3-.74,43.87,5.57,7.3,27.05,17.5,27.05,17.5,0,0,13.92,14.09,27.13,14.54l.13-3.18Z"/><path class="cls-16" d="m111.4,270.04l2.29,11.21s-4.12-3.43-8.69,0-8.23,10.98-8.23,10.98l15.32,9.15-.69,20.59s-12.81,12.35-5.03,26.3c7.78,13.95,37.28-2.06,49.63-29.96,0,0,23.79-20.36,23.79-32.25s-26.3-25.62-26.3-25.62l-42.09,9.61Z"/><path class="cls-11" d="m176.54,278.13c-6.08,15.28-23.29,31.03-23.29,31.03,0,0-3.89,13.49-20.81,29.05-16.92,15.54-27.15,7.8-27.16,7.79.31.75.66,1.51,1.09,2.28,7.78,13.95,37.28-2.06,49.63-29.96,0,0,23.79-20.36,23.79-32.25,0-2.61-1.27-5.31-3.24-7.93Z"/><path class="cls-4" d="m112.28,274.35l1.41,6.9,10.75,1.6s2.06-6.4,9.38-6.86c7.32-.46,18.3,1.14,19.67-15.55l-5.17-5.53s-10.46,16.43-36.04,19.45Z"/><rect class="cls-8" x="46.52" y="249.16" width="171.68" height="43.22" rx="13.92" ry="13.92"/><rect class="cls-10" x="79.76" y="276.57" width="105.19" height="1.55"/><path class="cls-10" d="m79.76,272.19c-2.85,0-5.16,2.31-5.16,5.16s2.31,5.16,5.16,5.16,5.16-2.31,5.16-5.16-2.31-5.16-5.16-5.16Z"/><path class="cls-10" d="m143.44,272.19c-2.85,0-5.16,2.31-5.16,5.16s2.31,5.16,5.16,5.16,5.16-2.31,5.16-5.16-2.31-5.16-5.16-5.16Z"/><path class="cls-10" d="m184.95,272.19c-2.58,0-4.7,1.91-5.08,4.38h-8.68c-2.82,0-5.12-2.3-5.12-5.12v-2.28c0-3.68-2.99-6.67-6.67-6.67h-10.88c-.38-2.48-2.5-4.38-5.08-4.38s-4.7,1.91-5.08,4.38h-8.88c-3.68,0-6.67,2.99-6.67,6.67v2.28c0,2.82-2.3,5.12-5.12,5.12h-10.67c-.38-2.48-2.5-4.38-5.08-4.38-2.85,0-5.16,2.31-5.16,5.16s2.31,5.16,5.16,5.16c2.58,0,4.7-1.9,5.08-4.38h10.67c3.68,0,6.67-2.99,6.67-6.68v-2.28c0-2.82,2.3-5.12,5.12-5.12h8.88c.38,2.48,2.5,4.38,5.08,4.38s4.7-1.9,5.08-4.38h10.88c2.82,0,5.12,2.3,5.12,5.12v2.28c0,3.68,2.99,6.67,6.68,6.67h8.68c.38,2.48,2.5,4.38,5.08,4.38,2.85,0,5.16-2.31,5.16-5.16s-2.31-5.16-5.16-5.16Z"/></g></svg>