<?xml version="1.0" encoding="UTF-8"?><svg id="Calque_1" xmlns="http://www.w3.org/2000/svg" xmlns:xlink="http://www.w3.org/1999/xlink" viewBox="0 0 285.41 155.62"><defs><style>.cls-1{fill:url(#Dégradé_sans_nom_150);}.cls-2{fill:#0a38a3;}.cls-3{fill:#f96e2b;}</style><linearGradient id="Dégradé_sans_nom_150" x1="155.75" y1="72.06" x2="135" y2="21.96" gradientUnits="userSpaceOnUse"><stop offset="0" stop-color="#0a38a3"/><stop offset="1" stop-color="#5e85ed"/></linearGradient></defs><path class="cls-1" d="M161.35,60.13c-.96-.76-1.54-1.8-1.77-2.91-4.99,4.74-11.87,7.52-19.39,7.06-12.71-.77-23.13-10.98-24.13-23.68-1.25-15.9,11.9-29.07,27.79-27.84,12.52.96,22.68,11.09,23.7,23.61.44,5.48-.84,10.64-3.35,15,1.13-.05,2.28.27,3.24,1.03l7.42,5.84c3.61-6.04,5.63-13.15,5.43-20.75C179.75,16.72,162.38-.1,141.61,0c-21.29.1-38.49,17.48-38.31,38.83.18,21,18.23,38.17,39.24,38.17h32.17c2.66,0,3.82-3.36,1.73-5l-15.09-11.87Z"/><path class="cls-2" d="M20.57,111.14c10.91,0,20.63,7.97,20.63,20.91,0,5.65-1.87,10.34-4.92,13.85l4.8,5.31-5.14,4.41-4.92-5.43c-3.11,1.75-6.73,2.71-10.46,2.71-10.85,0-20.57-7.97-20.57-20.86s9.72-20.91,20.57-20.91ZM20.57,145.33c1.75,0,3.56-.34,5.14-1.02l-6.27-6.9,5.2-4.46,6.27,7.01c1.36-2.04,2.2-4.69,2.2-7.97,0-9.04-6.33-13.34-12.55-13.34s-12.49,4.29-12.49,13.34,6.33,13.34,12.49,13.34Z"/><path class="cls-2" d="M65.22,149.07c-1.53,2.6-4.75,3.73-7.69,3.73-6.73,0-10.57-4.92-10.57-10.96v-17.58h7.52v16.05c0,3.11,1.58,5.6,5.09,5.6s5.26-2.26,5.26-5.48v-16.16h7.52v22.78c0,2.15.17,4.07.28,5.03h-7.18c-.11-.57-.23-1.87-.23-3Z"/><path class="cls-2" d="M86.98,136.07l6.84-1.02c1.58-.23,2.09-1.02,2.09-1.98,0-1.98-1.53-3.62-4.69-3.62s-5.09,2.09-5.31,4.52l-6.67-1.41c.45-4.35,4.46-9.16,11.92-9.16,8.82,0,12.1,4.97,12.1,10.57v13.68c0,1.47.17,3.45.34,4.41h-6.9c-.17-.73-.28-2.26-.28-3.33-1.41,2.2-4.07,4.13-8.2,4.13-5.93,0-9.55-4.01-9.55-8.36,0-4.97,3.67-7.74,8.31-8.42ZM95.91,140.81v-1.24l-6.27.96c-1.92.28-3.45,1.36-3.45,3.5,0,1.64,1.19,3.22,3.62,3.22,3.17,0,6.1-1.53,6.1-6.44Z"/><path class="cls-2" d="M110.83,152.06v-40.92h7.52v40.92h-7.52Z"/><path class="cls-2" d="M151.3,144.09c-1.41,4.8-5.82,8.82-12.66,8.82-7.63,0-14.36-5.48-14.36-14.86,0-8.87,6.56-14.64,13.68-14.64,8.59,0,13.73,5.48,13.73,14.41,0,1.07-.11,2.2-.11,2.32h-19.89c.17,3.67,3.28,6.33,7.01,6.33,3.5,0,5.43-1.75,6.33-4.24l6.27,1.87ZM144.29,134.99c-.11-2.77-1.92-5.48-6.22-5.48-3.9,0-6.05,2.94-6.22,5.48h12.43Z"/><path class="cls-2" d="M157.62,152.06v-40.92h7.4v16.17c1.24-1.98,4.29-3.79,8.42-3.79,8.14,0,12.83,6.27,12.83,14.53s-5.2,14.69-13.11,14.69c-3.84,0-6.78-1.7-8.25-4.07v3.39h-7.29ZM171.87,130.24c-3.79,0-6.95,2.77-6.95,7.86s3.17,7.91,6.95,7.91,6.89-2.83,6.89-7.91-3.05-7.86-6.89-7.86Z"/><path class="cls-2" d="M219.29,138.16c0,8.53-6.27,14.75-14.58,14.75s-14.58-6.22-14.58-14.75,6.27-14.75,14.58-14.75,14.58,6.16,14.58,14.75ZM211.77,138.16c0-5.26-3.39-7.91-7.07-7.91s-7.06,2.66-7.06,7.91,3.39,7.91,7.06,7.91,7.07-2.66,7.07-7.91Z"/><path class="cls-2" d="M252.29,138.16c0,8.53-6.27,14.75-14.58,14.75s-14.58-6.22-14.58-14.75,6.27-14.75,14.58-14.75,14.58,6.16,14.58,14.75ZM244.77,138.16c0-5.26-3.39-7.91-7.07-7.91s-7.06,2.66-7.06,7.91,3.39,7.91,7.06,7.91,7.07-2.66,7.07-7.91Z"/><path class="cls-2" d="M274.05,135.95l11.36,16.11h-9.21l-7.35-10.62-3.11,3.28v7.35h-7.52v-40.92h7.52v23.46l9.61-10.34h9.83l-11.13,11.7Z"/><path class="cls-3" d="M141.2,45.5c-.77,0-1.54-.29-2.12-.88l-6.97-6.97,4.24-4.24,4.85,4.85,7.38-7.38,4.24,4.24-9.5,9.5c-.59.59-1.35.88-2.12.88Z"/></svg>