<?xml version="1.0" encoding="UTF-8"?><svg id="Calque_2" xmlns="http://www.w3.org/2000/svg" viewBox="0 0 355.78 339.2"><defs><style>.cls-1{fill:#f96e2b;}.cls-1,.cls-2,.cls-3,.cls-4,.cls-5,.cls-6,.cls-7,.cls-8,.cls-9,.cls-10,.cls-11,.cls-12,.cls-13{stroke-width:0px;}.cls-2{fill:#dcdcdc;}.cls-3{fill:#666;}.cls-14{fill:none;stroke:#fff;stroke-miterlimit:10;}.cls-4{fill:#070454;}.cls-5{fill:#819ff1;}.cls-6{opacity:.39;}.cls-6,.cls-10{fill:#5e85ed;}.cls-7{fill:#494949;}.cls-8{fill:#fff;}.cls-9{fill:#cedaf4;}.cls-11{fill:#3d3d3d;}.cls-12{fill:#b6c8f7;}.cls-13{fill:#242424;}</style></defs><g id="Calque_1-2"><polygon class="cls-11" points="142.82 305.36 142.82 308.82 98.12 339.2 96.84 337.32 97.83 322.28 142.82 305.36"/><path class="cls-7" d="m107.49,295.01l34.28,8.98c1.16.3,1.43,1.84.43,2.51l-45.37,30.81-17.43-12.4,5.81-29.06,22.28-.85Z"/><path class="cls-3" d="m87.28,304.66l31.85,9.38c.93.27,1.12,1.5.33,2.04l-24.14,16.63-8.03-28.06Z"/><path class="cls-10" d="m133.69,89.92s.76-10.53-9.08-11.24-16.84,7-16.84,17.55,6.84,25.28,15.42,21.15c0,0,1.3,14.26-6.28,24.6l29.41,4.29,2.96-35.46-15.58-20.89Z"/><path class="cls-10" d="m219.42,34.39l-18.96-1.1c-3.8-.22-6.77-3.36-6.77-7.17V7.18c0-4.13,3.47-7.41,7.6-7.17l18.96,1.1c3.8.22,6.77,3.36,6.77,7.17v18.93c0,4.13-3.47,7.41-7.6,7.17Z"/><path class="cls-8" d="m209.34,25.24l-7.19-7.19c-1.21-1.21-1.21-3.16,0-4.37,1.21-1.21,3.16-1.21,4.37,0l2.82,2.82,6.43-6.43c1.21-1.21,3.16-1.21,4.37,0,1.21,1.21,1.21,3.16,0,4.37l-10.8,10.8Z"/><path class="cls-1" d="m219.42,75.98l-18.96-1.1c-3.8-.22-6.77-3.36-6.77-7.17v-18.93c0-4.13,3.47-7.41,7.6-7.17l18.96,1.1c3.8.22,6.77,3.36,6.77,7.17v18.93c0,4.13-3.47,7.41-7.6,7.17Z"/><path class="cls-8" d="m209.34,66.84l-7.19-7.19c-1.21-1.21-1.21-3.16,0-4.37,1.21-1.21,3.16-1.21,4.37,0l2.82,2.82,6.43-6.43c1.21-1.21,3.16-1.21,4.37,0,1.21,1.21,1.21,3.16,0,4.37l-10.8,10.8Z"/><path class="cls-1" d="m219.42,117.58l-18.96-1.1c-3.8-.22-6.77-3.36-6.77-7.17v-18.93c0-4.13,3.47-7.41,7.6-7.17l18.96,1.1c3.8.22,6.77,3.36,6.77,7.17v18.93c0,4.13-3.47,7.41-7.6,7.17Z"/><path class="cls-8" d="m209.34,108.43l-7.19-7.19c-1.21-1.21-1.21-3.16,0-4.37,1.21-1.21,3.16-1.21,4.37,0l2.82,2.82,6.43-6.43c1.21-1.21,3.16-1.21,4.37,0,1.21,1.21,1.21,3.16,0,4.37l-10.8,10.8Z"/><path class="cls-10" d="m355.73,83.2s2.78-21.5-34.32-41.09c-28.73-15.17-62.09-19.53-75.69-20.72-3.36-.29-6.25,2.35-6.25,5.72v95.02c0,2.79,2,5.17,4.74,5.66,18.51,3.26,86.09,17.29,111.56,52.09l-.05-96.68Z"/><path class="cls-8" d="m352.3,112.97c-.12,0-.24,0-.36-.03-1.18-.2-1.98-1.31-1.78-2.49,6.68-40.36-87.78-57.4-88.74-57.56-1.18-.21-1.96-1.33-1.76-2.5.21-1.18,1.33-1.96,2.5-1.76.25.04,24.9,4.42,48.36,14.04,13.9,5.7,24.7,12.11,32.1,19.05,9.57,8.98,13.54,18.88,11.79,29.44-.18,1.06-1.09,1.81-2.13,1.81Z"/><path class="cls-8" d="m347.45,129.99c-1.19,0-2.16-.97-2.16-2.16,0-9.06-7.17-22.37-41.32-34.31-20.98-7.33-42.27-10.56-42.48-10.6-1.18-.18-2-1.28-1.82-2.46s1.28-2,2.46-1.82c3.57.53,87.49,13.47,87.49,49.18,0,1.19-.97,2.16-2.16,2.16Z"/><path class="cls-8" d="m335.49,139.77c-.92,0-1.77-.59-2.06-1.51-1.16-3.68-7.57-11.31-37.49-21.13-17.42-5.72-34.42-9.37-34.59-9.4-1.17-.25-1.91-1.4-1.66-2.57.25-1.17,1.4-1.92,2.57-1.66.17.04,17.37,3.73,35.01,9.51,24.58,8.06,37.76,15.9,40.29,23.95.36,1.14-.27,2.35-1.41,2.71-.22.07-.44.1-.65.1Z"/><ellipse class="cls-1" cx="292.19" cy="58.73" rx="5.29" ry="7.55" transform="translate(-3.44 96.47) rotate(-18.64)"/><ellipse class="cls-1" cx="323.17" cy="98.78" rx="5.29" ry="7.55" transform="translate(-14.62 108.47) rotate(-18.64)"/><path class="cls-2" d="m228.72,144.93s14.02-16.78,18-36.5c0,0-5.1-9.53,0-25.93,0,0,.64-18.5,12.42-16.42,0,0,3.34-3.49,8.12-1.1,0,0,.96-1.59,5.26-1.59,0,0,8.76-12.72,15.93-12.01s-.64,15.2-5.42,17.9c0,0,4.94,4.98,5.89,9.34,0,0,3.66-4.35,8.84-2.62s-8.84,29.6-31.61,38.36c0,0,.96,40.45-10.83,59.57l-26.6-28.99Z"/><path class="cls-14" d="m259.14,66.08s-7.57,4.56-8.99,17.11"/><path class="cls-14" d="m267.26,64.98s-7.67,3.35-10,19.9"/><path class="cls-14" d="m272.52,63.39s-5.94,9.98-6.33,22.4"/><path class="cls-14" d="m283.03,69.28c-1.58.86-2.75.86-2.75.86,0,0,3.1,10.34-5.04,30.26"/><path class="cls-14" d="m288.92,78.62c-3.08,2.9-8,4.34-9.98,10.81"/><path class="cls-7" d="m224.11,149.99s-3.06-4.86,1.98-7.74c5.04-2.88,31.85,17.99,30.59,36.53-1.26,18.53-52,17.99-52,17.99,0,0-7.92-19.07-16.73-24.65,0,0,1.8,17.63-1.98,26.81-3.78,9.18-44.67,23.49-44.67,23.49l-52.92-17.44s-.39-85.45,47.24-68.33c0,0,1.77-6.84,7.87-6.67,6.1.17,17.91,4.7,17.91,4.7,0,0,4.11-8.27,15.44-8.27s13.3,7.61,22.35,13.35,24.93,10.22,24.93,10.22Z"/><path class="cls-2" d="m153.29,147.68s5.85,2.69,8.25-1.92l-5.18-10.26-3.07,12.18Z"/><path class="cls-10" d="m139.35,137.29s3.2-3.71,3.39-9.08c0,0,2.21-6.14,9.78-5.18s8.82,6.04,8.82,6.04c0,0-.38,6.43,2.59,12.08,0,0-.19,3.36-2.59,6.62l-4.89-8.73-2.4,10.93s-10.43-4.56-14.71-12.69Z"/><path class="cls-2" d="m144.09,132.05l1.67-7.57-7.81-9.98.86-19.08h19.66s10.43,15.25,11.03,23.69c.6,8.44-8.44,9.11-9.97,9.11l.19,5.08-3.26,4.6s-8.63-1.05-12.37-5.85Z"/><path class="cls-10" d="m143.8,100.39s3.29,10.17-4.45,13.43h-9.27l-1.25-20.62s12.56-10.84,24.46-5.47c0,0,11.76-2.4,16.24,5.85s-1.28,13.91-7.99,14-17.74-7.2-17.74-7.2Z"/><path class="cls-5" d="m130.6,109.76s1.15-2.21,3.54-2.57,10.63,4.69,12.93,10.81,1.42,11.23-5.4,9.11c-6.82-2.11-11.07-17.35-11.07-17.35Z"/><path class="cls-9" d="m151.65,87.1s-7.35-5.81-16.81,0c-9.46,5.81-8.73,16.55-6,24.34,0,0-2.32,5.31,1.58,8.06l12.88,7.61s2.17-.87,1.2-6.1-6.55-10.89-12.31-11.96c0,0-3.63-8.1,1.77-16.03s17.68-5.92,17.68-5.92Z"/><path class="cls-5" d="m130.97,110.96c-3.69.9-2.14,8.8,2.73,13.41s9.93,4.33,9.83-1.06-6.97-13.71-12.56-12.35Z"/><path class="cls-10" d="m77.61,209.01l10.77,55.31s37.76,38.19,84.17,7.9l28.42-47.41-59.68-2.39-52.92-17.44-10.77,4.03Z"/><path class="cls-2" d="m100.47,228.5l-2.48,36.94s10.46,10.76,13.25,23.86,1.75,30.74-2.97,30.74-10.48-10.3-8.91-20.43c0,0-10.65,13.62-19.04,15.37s-13.1-21.13-13.1-21.13c0,0,10.64-13.45,10.38-24.98-.25-11.53-9.69-30.39-13.53-39.12s9.61-17.47,9.61-17.47l26.78,16.23Z"/><path class="cls-9" d="m180.32,195.56s58.88-35.01,89.11-17.24c30.23,17.77-13.79,79.66-31.3,87.84-17.5,8.17-48.53-15.96-48.53-15.96l-9.28-54.63Z"/><path class="cls-4" d="m180.32,249.23l-7.77,3.88-9.44,9.52,4.41-2.12s-3.05,4.37-8.13,6.7-15.4,12.65-13.75,26.12,14.3,34.79,29.56,35.47,20.49-13.2,20.49-13.2c0,0,4.79-1.1,5.28-6.19,0,0,1.18-7.29,3.11-10.72,0,0,.55,2.2,2.89-.82,2.34-3.02,4.95-7.42,4.95-7.42l-.69-24.3-30.91-16.93Z"/><path class="cls-11" d="m192.86,320.47c-3.35,1.53-8.62,3.25-14.17,2.43-9.3-1.38-23.29-19.66-24.66-34.92-1.37-15.26,4.12-14.57,11.27-21.83,5.24-5.31,9.44-11.92,11.31-15.07l-4.06,2.03-9.44,9.52,4.41-2.12s-3.05,4.37-8.13,6.7c-5.09,2.34-15.4,12.65-13.75,26.12,1.65,13.47,14.3,34.79,29.56,35.47,9.15.41,14.69-4.41,17.66-8.34Z"/><path class="cls-13" d="m163.12,262.63l.9,1.59s2.43-2,3.51-3.71l-4.41,2.12Z"/><path class="cls-11" d="m200.97,309.43s.22-1.33.61-3.12c-1.01,3.87-3.49,7.12-9.21,6.09-5.72-1.03-17.03-12.57-20.92-26.18s8.86-20.46,8.86-20.46l-2-1.54s0,.97-6.74,6.91c-6.74,5.94-7.2,16.23,3.2,32.12,10.4,15.89,20.92,12.36,20.92,12.36,0,0,4.79-1.1,5.28-6.19Z"/><path class="cls-3" d="m206.97,297.88c2.34-3.02,4.95-7.42,4.95-7.42,0,0-.79-6.97-6.39-14.86-5.6-7.89-20.69-17.6-20.69-17.6l-8,5.49s22.37,19.93,27.25,35.23c0,0,.55,2.2,2.89-.82Z"/><path class="cls-2" d="m238.33,250.22l23.53,18.64-20.33,29.56-26.36-8.33-13.59-11.35s-4.15-.13-4.11-5.73l40.85-22.78Z"/><path class="cls-12" d="m197.47,275.37s34.42-5.51,46.99-20.29c5.15-6.05,3.5-17.97-8.08-20.19,0,0,4.6-16.18-15.84-19.24,0,0-22.48-33.54-45.12-35.08-22.65-1.53-57.01,34.3-57.01,34.3,0,0,14.76,40.73,56.23,37.18,0,0,1.21,15.55,16.44,15.78,0,0-1.66,7.3,6.39,7.53Z"/><path class="cls-4" d="m237.45,284.93s-1.13-17.7,7.21-25.34c4.37-4,9.2-1.6,9.2-1.6,0,0,4.83,4.89,9.03,5.71,0,0,7.49-1.05,9.24,4.14l15.6,5.71s3.39-2.01,4.11,1.82c0,0,3.59,1.98,4.52,6.19,0,0,2.46-.69,4.69,4.18,2.23,4.87,4.45,11.68-1.11,17.52s-19.47,20.58-59.8,19.19l-4.03-7.23-6.06-1.39,2.03,7.23-16.97-3.89s-8.21-14.11-4.59-17.69c0,0-5.42-9.98-5.98-16.94,0,0-3.09,1.11-3.56-2.23s4.26-2.36,9.4,1.39,15.86,5.7,26.01,4.73l1.07-1.5Z"/><path class="cls-11" d="m243.06,294.08s15.6-22.58,29.08-26.24c-1.75-5.2-9.24-4.14-9.24-4.14,0,0-12.69,3.18-25.45,21.23l-1.07,1.5-2.5,3.48,9.18,4.17Z"/><path class="cls-11" d="m293.82,294.92c-7.09,6.26-26.05,18.59-51.18,17.11-9.46-.56-10.29-4.31-16.97-4.17-6.68.14-14.08-3.28-15.16-8.37-3.62,3.59,4.59,17.69,4.59,17.69l16.97,3.89-2.03-7.23,6.06,1.39,4.03,7.23c40.33,1.39,54.24-13.35,59.8-19.19,5.56-5.84,3.34-12.66,1.11-17.52-2.23-4.87-4.69-4.18-4.69-4.18,0,0,4.55,7.1-2.54,13.36Z"/><polygon class="cls-13" points="236.11 315.22 230.04 313.83 232.07 321.06 237.87 318.39 236.11 315.22"/><path class="cls-11" d="m269.08,290.77c-8.81,2.82-21.84-2.21-21.84-2.21l-1.94,2.49c13.48,6.2,24.49,4.31,34.48-.04s12.08-15.63,12.08-15.63c-.72-3.83-4.11-1.82-4.11-1.82-.61,8.05-9.85,14.4-18.67,17.22Z"/><path class="cls-9" d="m355.73,83.2s.12,20.63-49.54,39.78c-2.67,1.03-4.44,3.59-4.44,6.46v106.49c0,4.95,5.04,8.29,9.61,6.37,15.51-6.53,44.34-21.83,44.37-45.36v-113.74Z"/><path class="cls-8" d="m355.73,124.24v-14.55c-.57,1.87-1.55,4.36-3.28,7.23-3.58,5.95-11.13,14.78-26.78,23.07-1.66.88-2.29,2.94-1.41,4.6.61,1.15,1.79,1.81,3.01,1.81.54,0,1.08-.13,1.59-.4,13.66-7.24,21.9-15.02,26.87-21.76Z"/><path class="cls-8" d="m355.73,151.42v-22.23c-.04.16-.07.32-.09.49-2.42,26.61-28.22,40.46-28.48,40.59-1.66.87-2.3,2.92-1.44,4.58.61,1.16,1.79,1.83,3.02,1.83.53,0,1.07-.12,1.57-.39.88-.46,16.19-8.63,25.42-24.88Z"/><path class="cls-8" d="m355.73,181.04v-20.89c-.91,9.98-5.74,19.48-14.39,28.27-7.08,7.19-14.17,11.16-14.24,11.2-1.64.91-2.24,2.97-1.33,4.62.62,1.12,1.78,1.76,2.98,1.76.55,0,1.12-.14,1.64-.42.9-.5,16.13-9.05,25.35-24.54Z"/><ellipse class="cls-1" cx="344.87" cy="190.29" rx="8.65" ry="3.35" transform="translate(95.47 495.17) rotate(-79.6)"/><ellipse class="cls-1" cx="348.52" cy="154.8" rx="8.65" ry="3.35" transform="translate(133.37 469.66) rotate(-79.6)"/><path class="cls-4" d="m8.15,122.93v-30.57s4.77-28.94,54.86-44c4.54-1.36,9.11,2.01,9.11,6.75v66.06c0,3.02-1.92,5.7-4.78,6.68-9.88,3.37-32.02,13.28-36.72,35.48l-22.47-40.4Z"/><path class="cls-9" d="m8.15,92.36c-2.22,25.91,36.65,47.51,115.59,61.28,3.97.69,6.86,4.14,6.86,8.17v77.75c0,5.14-4.62,9.05-9.69,8.18-19.41-3.33-63.43-12.68-89.54-32.4-17.13-12.95-23.23-30.08-23.23-30.08v-92.9Z"/><path class="cls-11" d="m99.61,335.44l-16.61-63.28c-.31-1.18-1.22-2.1-2.4-2.43L3.25,248.48l-3.25,1.98,76.56,78.38,21.56,10.36,1.49-3.76Z"/><path class="cls-7" d="m98.12,339.2l-17.37-65.27c-.3-1.12-1.17-1.99-2.28-2.29L0,250.46l15.88,65.71,82.24,23.04Z"/><path class="cls-6" d="m118.89,168.67c-31.28-3.73-73.89-16.51-99.29-35.53-5.32-3.98-8.96-7.77-11.45-10.99v11.84c14.64,13.73,45.39,34.96,109.79,42.65.16.02.32.03.48.03,2.01,0,3.74-1.5,3.98-3.54.26-2.2-1.31-4.2-3.51-4.47Z"/><path class="cls-6" d="m81.62,183.13c-21.1-4.77-49.88-17.6-67.19-33.97-2.65-2.5-4.69-4.87-6.27-7.01v12.1c11.39,11.09,32.54,27.86,71.7,36.71.3.07.6.1.89.1,1.84,0,3.49-1.27,3.91-3.13.49-2.16-.87-4.31-3.03-4.8Z"/><path class="cls-6" d="m59.9,200.11c-27.51-9.24-41.57-25.67-48.52-33.69-1.25-1.45-2.32-2.83-3.24-4.14v12.47c8.99,9.16,24.04,24.53,49.19,32.97.42.14.85.21,1.28.21,1.68,0,3.24-1.06,3.81-2.74.71-2.1-.43-4.38-2.53-5.09Z"/></g></svg>